<svg width="24" height="24" viewBox="0 0 24 24" fill="none" xmlns="http://www.w3.org/2000/svg">
<path d="M21.5306 7.28104L9.53063 19.281C9.46098 19.3508 9.37826 19.4061 9.28721 19.4438C9.19616 19.4816 9.09857 19.501 9.00001 19.501C8.90144 19.501 8.80385 19.4816 8.7128 19.4438C8.62175 19.4061 8.53903 19.3508 8.46938 19.281L3.21938 14.031C3.07865 13.8903 2.99959 13.6994 2.99959 13.5004C2.99959 13.3014 3.07865 13.1105 3.21938 12.9698C3.36011 12.8291 3.55098 12.75 3.75001 12.75C3.94903 12.75 4.1399 12.8291 4.28063 12.9698L9.00001 17.6901L20.4694 6.21979C20.6101 6.07906 20.801 6 21 6C21.199 6 21.3899 6.07906 21.5306 6.21979C21.6714 6.36052 21.7504 6.55139 21.7504 6.75042C21.7504 6.94944 21.6714 7.14031 21.5306 7.28104Z" fill="#FBFBFB"/>
</svg>
