<svg width="24" height="24" viewBox="0 0 24 24" fill="none" xmlns="http://www.w3.org/2000/svg">
<path d="M21.5306 7.28055L9.53063 19.2806C9.46098 19.3503 9.37826 19.4056 9.28721 19.4433C9.19616 19.4811 9.09857 19.5005 9.00001 19.5005C8.90144 19.5005 8.80385 19.4811 8.7128 19.4433C8.62175 19.4056 8.53903 19.3503 8.46938 19.2806L3.21938 14.0306C3.07865 13.8898 2.99959 13.699 2.99959 13.4999C2.99959 13.3009 3.07865 13.11 3.21938 12.9693C3.36011 12.8286 3.55098 12.7495 3.75001 12.7495C3.94903 12.7495 4.1399 12.8286 4.28063 12.9693L9.00001 17.6896L20.4694 6.2193C20.6101 6.07857 20.801 5.99951 21 5.99951C21.199 5.99951 21.3899 6.07857 21.5306 6.2193C21.6714 6.36003 21.7504 6.55091 21.7504 6.74993C21.7504 6.94895 21.6714 7.13982 21.5306 7.28055Z" fill="#1B1B1B"/>
</svg>
