<svg width="24" height="24" viewBox="0 0 24 24" fill="none" xmlns="http://www.w3.org/2000/svg">
<path d="M7.05026 6.94973C7.24552 6.75447 7.5621 6.75447 7.75736 6.94973L16.9497 16.1421C17.145 16.3374 17.145 16.654 16.9497 16.8492C16.7545 17.0445 16.4379 17.0445 16.2426 16.8492L7.05026 7.65684C6.85499 7.46157 6.85499 7.14499 7.05026 6.94973Z" fill="#1B1B1B"/>
<path d="M16.9497 6.94973C17.145 7.14499 17.145 7.46158 16.9497 7.65684L7.75736 16.8492C7.5621 17.0445 7.24552 17.0445 7.05026 16.8492C6.85499 16.654 6.85499 16.3374 7.05026 16.1421L16.2426 6.94973C16.4379 6.75447 16.7545 6.75447 16.9497 6.94973Z" fill="#1B1B1B"/>
</svg>
