<svg width="1312" height="315" viewBox="0 0 1312 315" fill="none" xmlns="http://www.w3.org/2000/svg">
<path d="M69.4723 259.086C-23.1574 205.825 -23.1574 71.952 69.4723 18.6919C162.102 -34.5681 278.519 32.3687 278.519 138.889C278.519 245.409 162.103 312.346 69.4723 259.086ZM136.774 156.973L87.8785 108.208L72.4925 123.553L106.002 156.973L72.4925 190.393L87.8785 205.738L136.774 156.973ZM208.54 154.321L175.03 120.9L208.54 87.4809L193.153 72.1359L144.258 120.9L193.153 169.666L208.54 154.321Z" fill="#E8E8E8"/>
<path d="M662.871 50.0003L605.496 243.056H569.567L528.903 96.9447L485.733 243.056L450.083 243.333L395.215 50.0003H428.915L469.022 207.222L512.471 50.0003H548.121L588.507 206.389L628.892 50.0003H662.871Z" fill="#E8E8E8"/>
<path d="M821.355 162.778C821.355 168.519 820.983 173.704 820.241 178.333H702.984C703.913 190.556 708.462 200.37 716.632 207.778C724.801 215.185 734.828 218.889 746.712 218.889C763.794 218.889 775.863 211.759 782.919 197.5H817.177C812.535 211.574 804.086 223.148 791.832 232.222C779.762 241.111 764.722 245.556 746.712 245.556C732.043 245.556 718.86 242.315 707.162 235.833C695.65 229.167 686.552 219.908 679.867 208.056C673.368 196.019 670.119 182.13 670.119 166.389C670.119 150.648 673.276 136.852 679.589 125C686.087 112.963 695.093 103.704 706.605 97.2224C718.303 90.741 731.672 87.5002 746.712 87.5002C761.195 87.5002 774.099 90.6484 785.426 96.9447C796.752 103.241 805.572 112.13 811.885 123.611C818.198 134.908 821.355 147.963 821.355 162.778ZM788.211 152.778C788.025 141.111 783.847 131.759 775.678 124.722C767.508 117.685 757.388 114.167 745.319 114.167C734.364 114.167 724.987 117.685 717.189 124.722C709.39 131.574 704.748 140.926 703.263 152.778H788.211Z" fill="#E8E8E8"/>
<path d="M875.996 112.778C881.381 105.371 888.715 99.3521 897.999 94.7224C907.469 89.9076 917.96 87.5002 929.472 87.5002C943.027 87.5002 955.281 90.741 966.236 97.2224C977.192 103.704 985.826 112.963 992.139 125C998.452 136.852 1001.61 150.463 1001.61 165.833C1001.61 181.204 998.452 195 992.139 207.222C985.826 219.259 977.099 228.704 965.958 235.556C955.003 242.222 942.841 245.556 929.472 245.556C917.589 245.556 907.005 243.241 897.721 238.611C888.623 233.982 881.381 228.056 875.996 220.833V243.056H844.245V37.5003H875.996V112.778ZM969.3 165.833C969.3 155.278 967.072 146.204 962.616 138.611C958.345 130.834 952.589 125 945.348 121.111C938.292 117.037 930.679 115 922.509 115C914.525 115 906.912 117.037 899.671 121.111C892.615 125.185 886.859 131.111 882.402 138.889C878.132 146.667 875.996 155.833 875.996 166.389C875.996 176.945 878.132 186.204 882.402 194.167C886.859 201.945 892.615 207.87 899.671 211.945C906.912 216.019 914.525 218.056 922.509 218.056C930.679 218.056 938.292 216.019 945.348 211.945C952.589 207.685 958.345 201.574 962.616 193.611C967.072 185.648 969.3 176.389 969.3 165.833Z" fill="#E8E8E8"/>
<path d="M1040.81 69.7225C1035.05 69.7225 1030.22 67.778 1026.32 63.8891C1022.42 60.0003 1020.47 55.1855 1020.47 49.4447C1020.47 43.704 1022.42 38.8892 1026.32 35.0003C1030.22 31.1114 1035.05 29.167 1040.81 29.167C1046.38 29.167 1051.11 31.1114 1055.01 35.0003C1058.91 38.8892 1060.86 43.704 1060.86 49.4447C1060.86 55.1855 1058.91 60.0003 1055.01 63.8891C1051.11 67.778 1046.38 69.7225 1040.81 69.7225ZM1056.4 90.0002V243.056H1024.65V90.0002H1056.4Z" fill="#E8E8E8"/>
<path d="M1154.07 115.834H1125.66V243.056H1093.63V115.834H1075.53V90.0002H1093.63V79.1669C1093.63 61.5743 1098.27 48.7966 1107.56 40.8336C1117.03 32.6855 1131.79 28.6114 1151.84 28.6114V55.0003C1142.19 55.0003 1135.41 56.8521 1131.51 60.5558C1127.61 64.0743 1125.66 70.278 1125.66 79.1669V90.0002H1154.07V115.834Z" fill="#E8E8E8"/>
<path d="M1312 90.0002L1217.86 315H1185L1216.19 240.556L1155.75 90.0002H1191.12L1234.29 206.667L1279.13 90.0002H1312Z" fill="#E8E8E8"/>
</svg>
