<svg width="72" height="72" viewBox="0 0 72 72" fill="none" xmlns="http://www.w3.org/2000/svg">
<path d="M58.8754 38.1255H50.8377C43.8167 38.1255 38.1252 43.8171 38.1252 50.838V58.8757C49.2064 58.054 58.0537 49.2066 58.8754 38.1255Z" fill="#1B1B1B"/>
<path d="M34.7502 58.8757V50.838C34.7502 43.8171 29.0586 38.1255 22.0377 38.1255H14C14.8216 49.2066 23.669 58.054 34.7502 58.8757Z" fill="#1B1B1B"/>
<path d="M58.8754 34.7502C58.0537 23.669 49.2064 14.8216 38.1252 14V22.0377C38.1252 29.0586 43.8167 34.7502 50.8377 34.7502H58.8754Z" fill="#1B1B1B"/>
<path d="M34.7502 14C23.669 14.8216 14.8216 23.669 14 34.7502H22.0377C29.0586 34.7502 34.7502 29.0586 34.7502 22.0377V14Z" fill="#1B1B1B"/>
<path d="M29.2183 36.4377C32.3373 34.8793 34.8793 32.3373 36.4376 29.2183C37.9961 32.3373 40.5379 34.8793 43.6571 36.4377C40.5379 37.9961 37.9961 40.538 36.4376 43.6571C34.8793 40.538 32.3373 37.9961 29.2183 36.4377Z" fill="#1B1B1B"/>
</svg>
