<svg width="72" height="72" viewBox="0 0 72 72" fill="none" xmlns="http://www.w3.org/2000/svg">
<path fill-rule="evenodd" clip-rule="evenodd" d="M22.4808 22.5547L9 35.9C11.6964 38.5694 14.7766 40.819 18.135 42.579C19.0632 45.0165 20.5182 47.3025 22.5 49.2643C29.9559 56.6452 42.0442 56.6452 49.5 49.2643C51.4818 47.3025 52.9368 45.0165 53.8651 42.5789C57.2233 40.819 60.3036 38.5694 63 35.9L49.5301 22.5656C49.5201 22.5556 49.5101 22.5456 49.5 22.5357C42.0442 15.1548 29.9559 15.1548 22.5 22.5357C22.4936 22.542 22.4872 22.5484 22.4808 22.5547ZM48.2101 44.9867C44.2816 46.2992 40.1576 46.9713 36 46.9713C31.8424 46.9713 27.7186 46.2992 23.7901 44.9867C24.2157 45.5457 24.6857 46.0822 25.2 46.5915C31.1647 52.4962 40.8353 52.4962 46.8 46.5915C47.3144 46.0822 47.7844 45.5457 48.2101 44.9867ZM25.4769 24.9412C26.4898 25.6037 27.5668 26.1706 28.6938 26.6327C31.0101 27.5825 33.4928 28.0714 36 28.0714C38.5072 28.0714 40.9899 27.5825 43.3062 26.6327C44.4332 26.1706 45.5102 25.6037 46.5233 24.9412C40.6329 19.3929 31.3671 19.3929 25.4769 24.9412Z" fill="#1B1B1B"/>
</svg>
