<svg width="72" height="72" viewBox="0 0 72 72" fill="none" xmlns="http://www.w3.org/2000/svg">
<path fill-rule="evenodd" clip-rule="evenodd" d="M10.4062 28.6672C9.00799 32.1208 8.64215 35.9209 9.35501 39.5873C10.0678 43.2535 11.8273 46.6212 14.4108 49.2643C16.9944 51.9075 20.2861 53.7076 23.8696 54.4369C27.4533 55.1661 31.1677 54.7918 34.5433 53.3613C37.9189 51.9308 40.8041 49.5083 42.834 46.4003C42.8881 46.3174 42.9416 46.2341 42.9944 46.1504C43.0316 46.0914 43.0686 46.032 43.1053 45.9725V54.8H44.5263C48.1801 54.8 51.7518 53.6915 54.7897 51.6147C57.8277 49.5381 60.1955 46.5862 61.5937 43.1326C62.992 39.6792 63.3579 35.8791 62.645 32.2127C61.9322 28.5466 60.1728 25.1789 57.5892 22.5357C55.0056 19.8924 51.7139 18.0924 48.1304 17.3632C44.5467 16.6339 40.8323 17.0082 37.4567 18.4387C34.0811 19.8692 31.1959 22.2917 29.166 25.3997C29.0737 25.5412 28.9832 25.6839 28.8947 25.8275V17H27.4737C23.8199 17 20.2482 18.1085 17.2103 20.1853C14.1723 22.2619 11.8045 25.2137 10.4062 28.6672ZM26.0527 35.9V19.9739C23.4626 20.2158 20.9643 21.1161 18.7893 22.6029C16.2186 24.3601 14.2152 26.8578 13.032 29.78C11.8489 32.7023 11.5393 35.9177 12.1425 39.02C12.7456 42.1222 14.2344 44.9717 16.4205 47.2083C18.6066 49.4448 21.3919 50.9679 24.4242 51.585C27.4564 52.2021 30.5993 51.8854 33.4557 50.6749C36.1972 49.5131 38.5565 47.578 40.2605 45.0989C38.9691 45.7261 37.5246 46.077 36 46.077C30.5063 46.077 26.0527 41.5205 26.0527 35.9ZM45.9473 51.8261V35.9C45.9473 30.2795 41.4937 25.7231 36 25.7231C34.4754 25.7231 33.0309 26.0739 31.7395 26.7011C33.4435 24.2219 35.8028 22.2868 38.5443 21.1251C41.4007 19.9146 44.5436 19.5979 47.5758 20.215C50.6081 20.8321 53.3934 22.3552 55.5796 24.5917C57.7656 26.8283 59.2544 29.6779 59.8575 32.78C60.4606 35.8823 60.1511 39.0977 58.968 42.02C57.785 44.9422 55.7814 47.4399 53.2107 49.1971C51.0358 50.6839 48.5375 51.5842 45.9473 51.8261ZM35.8578 43.1679C32.0465 43.0913 28.971 39.9446 28.8962 36.0454H31.5843C33.7049 36.5399 35.3743 38.2477 35.8578 40.4172V43.1679ZM36.142 43.1679C39.9533 43.0913 43.029 39.9446 43.1038 36.0454H40.4157C38.2949 36.5399 36.6255 38.2479 36.142 40.4178V43.1679ZM43.1038 35.7546C43.029 31.8554 39.9533 28.7087 36.142 28.6322V31.3822C36.6255 33.5519 38.2947 35.26 40.4153 35.7546H43.1038ZM35.8578 28.6322C32.0467 28.7087 28.971 31.8554 28.8962 35.7546H31.5847C33.7051 35.26 35.3744 33.5522 35.8578 31.3828V28.6322Z" fill="#1B1B1B"/>
</svg>
