<svg width="72" height="72" viewBox="0 0 72 72" fill="none" xmlns="http://www.w3.org/2000/svg">
<path d="M18.5676 46.8294C20.3278 48.0572 23.1816 48.0572 24.9419 46.8294C26.702 45.6016 26.702 43.611 24.9419 42.3832C23.1816 41.1555 20.3278 41.1555 18.5676 42.3832C16.8074 43.611 16.8074 45.6016 18.5676 46.8294Z" fill="#1B1B1B"/>
<path d="M36.8368 30.1569C39.4771 31.9985 43.7578 31.9985 46.3982 30.1569C49.0384 28.3152 49.0384 25.3293 46.3982 23.4877C43.7578 21.646 39.4771 21.646 36.8368 23.4877C34.1966 25.3293 34.1966 28.3152 36.8368 30.1569Z" fill="#1B1B1B"/>
<path d="M27.1388 38.4934C29.339 40.028 32.9063 40.028 35.1065 38.4934C37.3068 36.9586 37.3068 34.4704 35.1065 32.9356C32.9063 31.401 29.339 31.401 27.1388 32.9356C24.9385 34.4704 24.9385 36.9586 27.1388 38.4934Z" fill="#1B1B1B"/>
<path d="M12.9901 37.3817C14.3103 38.3025 16.4506 38.3025 17.7708 37.3817C19.0909 36.4609 19.0909 34.968 17.7708 34.047C16.4506 33.1262 14.3103 33.1262 12.9901 34.047C11.67 34.968 11.67 36.4609 12.9901 37.3817Z" fill="#1B1B1B"/>
<path d="M27.1388 20.7087C29.339 22.2434 32.9063 22.2434 35.1065 20.7087C37.3068 19.174 37.3068 16.6857 35.1065 15.151C32.9063 13.6163 29.339 13.6163 27.1388 15.151C24.9385 16.6857 24.9385 19.174 27.1388 20.7087Z" fill="#1B1B1B"/>
<path d="M18.5676 29.0452C20.3278 30.2729 23.1816 30.2729 24.9419 29.0452C26.702 27.8174 26.702 25.8268 24.9419 24.599C23.1816 23.3713 20.3278 23.3713 18.5676 24.599C16.8074 25.8268 16.8074 27.8174 18.5676 29.0452Z" fill="#1B1B1B"/>
<path d="M27.1388 56.2775C29.339 57.8122 32.9063 57.8122 35.1065 56.2775C37.3068 54.7428 37.3068 52.2546 35.1065 50.7198C32.9063 49.1852 29.339 49.1852 27.1388 50.7198C24.9385 52.2546 24.9385 54.7428 27.1388 56.2775Z" fill="#1B1B1B"/>
<path d="M48.4584 39.049C51.0987 40.8906 55.3795 40.8906 58.0198 39.049C60.6601 37.2074 60.6601 34.2214 58.0198 32.3798C55.3795 30.5381 51.0987 30.5381 48.4584 32.3798C45.8182 34.2214 45.8182 37.2074 48.4584 39.049Z" fill="#1B1B1B"/>
<path d="M36.8368 47.941C39.4771 49.7827 43.7578 49.7827 46.3982 47.941C49.0384 46.0994 49.0384 43.1135 46.3982 41.2718C43.7578 39.4302 39.4771 39.4302 36.8368 41.2718C34.1966 43.1135 34.1966 46.0994 36.8368 47.941Z" fill="#1B1B1B"/>
</svg>
