<svg width="72" height="72" viewBox="0 0 72 72" fill="none" xmlns="http://www.w3.org/2000/svg">
<path fill-rule="evenodd" clip-rule="evenodd" d="M41.625 51.75C43.2337 51.75 44.8267 51.4331 46.3128 50.8175C47.7991 50.2018 49.1496 49.2996 50.2871 48.1621C51.4246 47.0246 52.3268 45.6741 52.9425 44.1878C53.5581 42.7017 53.875 41.1087 53.875 39.5C53.875 34.6267 51.939 29.9528 48.4931 26.5069C45.0472 23.0609 40.3733 21.125 35.5 21.125C30.6267 21.125 25.9528 23.0609 22.5069 26.5069C19.0609 29.9528 17.125 34.6267 17.125 39.5C17.125 41.1087 17.4419 42.7017 18.0575 44.1878C18.6731 45.6741 19.5754 47.0246 20.7129 48.1621C21.8505 49.2996 23.2009 50.2018 24.6872 50.8175C26.1733 51.4331 27.7663 51.75 29.375 51.75H41.625ZM35.5 26.025C31.9262 26.025 28.4988 27.4447 25.9717 29.9717C23.4447 32.4988 22.025 35.9262 22.025 39.5C22.025 40.4652 22.2151 41.4209 22.5845 42.3127C22.9539 43.2045 23.4952 44.0147 24.1778 44.6972C24.8603 45.3798 25.6705 45.9211 26.5623 46.2905C27.4541 46.6599 28.4098 46.85 29.375 46.85H41.625C42.5902 46.85 43.5459 46.6599 44.4377 46.2905C45.3295 45.9211 46.1397 45.3798 46.8222 44.6972C47.5048 44.0147 48.0461 43.2045 48.4155 42.3127C48.7849 41.4209 48.975 40.4652 48.975 39.5C48.975 35.9262 47.5554 32.4988 45.0283 29.9717C42.5012 27.4447 39.0738 26.025 35.5 26.025Z" fill="#1B1B1B"/>
<path fill-rule="evenodd" clip-rule="evenodd" d="M26.925 57.875C24.8337 57.875 22.7629 57.3997 20.8308 56.4763C18.8987 55.5529 17.1431 54.1994 15.6643 52.4931C14.1856 50.7868 13.0125 48.7612 12.2122 46.5319C11.4119 44.3025 11 41.913 11 39.5C11 33.0022 13.5812 26.7705 18.1759 22.1759C22.7705 17.5812 29.0022 15 35.5 15C41.9978 15 48.2295 17.5812 52.8241 22.1759C57.4188 26.7705 60 33.0022 60 39.5C60 41.913 59.588 44.3025 58.7877 46.5319C57.9874 48.7612 56.8144 50.7868 55.3357 52.4931C53.8569 54.1994 52.1013 55.5529 50.1693 56.4763C48.2371 57.3997 46.1663 57.875 44.075 57.875H26.925ZM21.6407 25.6407C25.3165 21.965 30.3017 19.9 35.5 19.9C40.6983 19.9 45.6835 21.965 49.3593 25.6407C53.035 29.3165 55.1 34.3017 55.1 39.5C55.1 41.3594 54.782 43.1881 54.176 44.8763C53.57 46.5643 52.6961 48.0571 51.6328 49.284C50.5707 50.5094 49.348 51.4379 48.0563 52.0553C46.7677 52.6712 45.4172 52.975 44.075 52.975H26.925C25.5828 52.975 24.2323 52.6712 22.9437 52.0553C21.652 51.4379 20.4293 50.5094 19.3672 49.284C18.304 48.0571 17.4301 46.5643 16.8241 44.8763C16.218 43.1881 15.9 41.3594 15.9 39.5C15.9 34.3017 17.965 29.3165 21.6407 25.6407Z" fill="#1B1B1B"/>
<path d="M41.625 45.625H35.4946C35.083 45.6246 34.6745 45.5827 34.275 45.5013C33.5008 45.3433 32.7605 45.036 32.0972 44.5927C31.0899 43.9197 30.3048 42.9632 29.8412 41.8439C29.6909 41.4809 29.5765 41.1062 29.4987 40.725C29.3365 39.9306 29.333 39.1079 29.4927 38.305C29.729 37.1169 30.3124 36.0255 31.169 35.169C32.0255 34.3124 33.1169 33.729 34.305 33.4927C34.3423 33.4852 34.3794 33.4783 34.4166 33.4715C34.7757 33.4071 35.1383 33.375 35.5 33.375C36.3005 33.375 37.0972 33.5319 37.8439 33.8412C38.9631 34.3048 39.9197 35.0899 40.5927 36.0971C41.2658 37.1044 41.625 38.2886 41.625 39.5H36.725C36.725 39.2577 36.6532 39.0209 36.5186 38.8194C36.384 38.618 36.1926 38.461 35.9688 38.3682C35.745 38.2755 35.4987 38.2512 35.261 38.2985C35.0234 38.3458 34.8051 38.4624 34.6338 38.6338C34.4624 38.8051 34.3458 39.0234 34.2985 39.261C34.2512 39.4987 34.2755 39.745 34.3682 39.9688C34.461 40.1926 34.618 40.384 34.8194 40.5186C35.0209 40.6532 35.2577 40.725 35.5 40.725H41.625C41.7858 40.725 41.9452 40.6933 42.0938 40.6318C42.2424 40.5702 42.3774 40.48 42.4912 40.3662C42.605 40.2524 42.6952 40.1174 42.7568 39.9688C42.8183 39.8202 42.85 39.6608 42.85 39.5C42.85 37.5507 42.0757 35.6812 40.6972 34.3028C39.3188 32.9243 37.4493 32.15 35.5 32.15C35.2886 32.15 35.0781 32.1591 34.8691 32.1771C34.3555 32.2213 33.8505 32.3193 33.3624 32.4678C32.8821 32.6137 32.4179 32.8086 31.9773 33.0492C31.4726 33.3248 30.9987 33.6604 30.5669 34.0514C30.477 34.1328 30.3889 34.2166 30.3028 34.3028C29.6997 34.9058 29.2123 35.6029 28.8547 36.3595C28.676 36.7377 28.5296 37.1308 28.4177 37.5346C28.2895 37.9962 28.2062 38.4715 28.1703 38.9541C28.1569 39.1352 28.15 39.3172 28.15 39.5C28.15 40.4605 28.3383 41.4166 28.7095 42.3127C29.2659 43.6558 30.2079 44.8036 31.4166 45.6113C31.4234 45.6159 31.4303 45.6205 31.4372 45.625H29.375C28.5707 45.625 27.7742 45.4666 27.0311 45.1588C26.288 44.8509 25.6128 44.3998 25.044 43.831C24.4752 43.2622 24.0241 42.587 23.7162 41.8439C23.4084 41.1008 23.25 40.3043 23.25 39.5C23.25 36.2511 24.5407 33.1353 26.8379 30.8379C29.1353 28.5407 32.2511 27.25 35.5 27.25C38.7489 27.25 41.8647 28.5407 44.1621 30.8379C46.4593 33.1353 47.75 36.2511 47.75 39.5C47.75 40.3043 47.5916 41.1008 47.2838 41.8439C46.9759 42.587 46.5248 43.2622 45.956 43.831C45.3872 44.3998 44.712 44.8509 43.9689 45.1588C43.2258 45.4666 42.4293 45.625 41.625 45.625Z" fill="#1B1B1B"/>
</svg>
