<svg width="72" height="72" viewBox="0 0 72 72" fill="none" xmlns="http://www.w3.org/2000/svg">
<path d="M36.1224 25.5612C36.1224 31.394 31.394 36.1224 25.5612 36.1224H15V25.5612C15 19.7284 19.7284 15 25.5612 15C31.394 15 36.1224 19.7284 36.1224 25.5612Z" fill="#1B1B1B"/>
<path d="M36.1224 46.6837C36.1224 40.8509 40.8509 36.1224 46.6837 36.1224H57.2449V46.6837C57.2449 52.5165 52.5165 57.2449 46.6837 57.2449C40.8509 57.2449 36.1224 52.5165 36.1224 46.6837Z" fill="#1B1B1B"/>
<path d="M15 46.6837C15 52.5165 19.7284 57.2449 25.5612 57.2449H36.1224L36.1224 46.6837C36.1224 40.8509 31.394 36.1224 25.5612 36.1224C19.7284 36.1224 15 40.8509 15 46.6837Z" fill="#1B1B1B"/>
<path d="M57.2449 25.5612C57.2449 19.7284 52.5165 15 46.6837 15H36.1224L36.1224 25.5612C36.1224 31.394 40.8509 36.1224 46.6837 36.1224C52.5165 36.1224 57.2449 31.394 57.2449 25.5612Z" fill="#1B1B1B"/>
</svg>
