<svg width="95" height="23" viewBox="0 0 95 23" fill="none" xmlns="http://www.w3.org/2000/svg">
<g clip-path="url(#clip0_102_2723)">
<path d="M4.98895 18.6542C-1.66266 14.8194 -1.66266 5.18055 4.98895 1.34582C11.6405 -2.48891 20.0002 2.33055 20.0002 10C20.0002 17.6695 11.6406 22.4889 4.98895 18.6542ZM9.82176 11.3021L6.31066 7.79098L5.20582 8.89582L7.61207 11.3021L5.20582 13.7083L6.31066 14.8132L9.82176 11.3021ZM14.9752 11.1111L12.5689 8.70484L14.9752 6.29863L13.8703 5.19379L10.3592 8.70484L13.8703 12.216L14.9752 11.1111Z" fill="#1B1B1B"/>
</g>
<path d="M47.6 3.6L43.48 17.5H40.9L37.98 6.98L34.88 17.5L32.32 17.52L28.38 3.6H30.8L33.68 14.92L36.8 3.6H39.36L42.26 14.86L45.16 3.6H47.6ZM58.9805 11.72C58.9805 12.1333 58.9538 12.5067 58.9005 12.84H50.4805C50.5471 13.72 50.8738 14.4267 51.4605 14.96C52.0471 15.4933 52.7671 15.76 53.6205 15.76C54.8471 15.76 55.7138 15.2467 56.2205 14.22H58.6805C58.3471 15.2333 57.7405 16.0667 56.8605 16.72C55.9938 17.36 54.9138 17.68 53.6205 17.68C52.5671 17.68 51.6205 17.4467 50.7805 16.98C49.9538 16.5 49.3005 15.8333 48.8205 14.98C48.3538 14.1133 48.1205 13.1133 48.1205 11.98C48.1205 10.8467 48.3471 9.85333 48.8005 9C49.2671 8.13333 49.9138 7.46667 50.7405 7C51.5805 6.53333 52.5405 6.3 53.6205 6.3C54.6605 6.3 55.5871 6.52667 56.4005 6.98C57.2138 7.43333 57.8471 8.07333 58.3005 8.9C58.7538 9.71333 58.9805 10.6533 58.9805 11.72ZM56.6005 11C56.5871 10.16 56.2871 9.48667 55.7005 8.98C55.1138 8.47333 54.3871 8.22 53.5205 8.22C52.7338 8.22 52.0605 8.47333 51.5005 8.98C50.9405 9.47333 50.6071 10.1467 50.5005 11H56.6005ZM62.9042 8.12C63.2909 7.58667 63.8176 7.15333 64.4842 6.82C65.1642 6.47333 65.9176 6.3 66.7442 6.3C67.7176 6.3 68.5976 6.53333 69.3842 7C70.1709 7.46667 70.7909 8.13333 71.2442 9C71.6976 9.85333 71.9242 10.8333 71.9242 11.94C71.9242 13.0467 71.6976 14.04 71.2442 14.92C70.7909 15.7867 70.1642 16.4667 69.3642 16.96C68.5776 17.44 67.7042 17.68 66.7442 17.68C65.8909 17.68 65.1309 17.5133 64.4642 17.18C63.8109 16.8467 63.2909 16.42 62.9042 15.9V17.5H60.6242V2.7H62.9042V8.12ZM69.6042 11.94C69.6042 11.18 69.4442 10.5267 69.1242 9.98C68.8176 9.42 68.4042 9 67.8842 8.72C67.3776 8.42667 66.8309 8.28 66.2442 8.28C65.6709 8.28 65.1242 8.42667 64.6042 8.72C64.0976 9.01333 63.6842 9.44 63.3642 10C63.0576 10.56 62.9042 11.22 62.9042 11.98C62.9042 12.74 63.0576 13.4067 63.3642 13.98C63.6842 14.54 64.0976 14.9667 64.6042 15.26C65.1242 15.5533 65.6709 15.7 66.2442 15.7C66.8309 15.7 67.3776 15.5533 67.8842 15.26C68.4042 14.9533 68.8176 14.5133 69.1242 13.94C69.4442 13.3667 69.6042 12.7 69.6042 11.94ZM74.7389 5.02C74.3256 5.02 73.9789 4.88 73.6989 4.6C73.4189 4.32 73.2789 3.97333 73.2789 3.56C73.2789 3.14667 73.4189 2.8 73.6989 2.52C73.9789 2.24 74.3256 2.1 74.7389 2.1C75.1389 2.1 75.4789 2.24 75.7589 2.52C76.0389 2.8 76.1789 3.14667 76.1789 3.56C76.1789 3.97333 76.0389 4.32 75.7589 4.6C75.4789 4.88 75.1389 5.02 74.7389 5.02ZM75.8589 6.48V17.5H73.5789V6.48H75.8589ZM82.8723 8.34H80.8323V17.5H78.5323V8.34H77.2323V6.48H78.5323V5.7C78.5323 4.43333 78.8657 3.51333 79.5323 2.94C80.2123 2.35333 81.2723 2.06 82.7123 2.06V3.96C82.019 3.96 81.5323 4.09333 81.2523 4.36C80.9723 4.61333 80.8323 5.06 80.8323 5.7V6.48H82.8723V8.34ZM94.213 6.48L87.453 22.68H85.093L87.333 17.32L82.993 6.48H85.533L88.633 14.88L91.853 6.48H94.213Z" fill="#1B1B1B"/>
<defs>
<clipPath id="clip0_102_2723">
<rect width="20" height="20" fill="white"/>
</clipPath>
</defs>
</svg>
