<svg width="72" height="72" viewBox="0 0 72 72" fill="none" xmlns="http://www.w3.org/2000/svg">
<path fill-rule="evenodd" clip-rule="evenodd" d="M24.25 13C30.4631 13 35.5 18.0368 35.5 24.25V13H46.75C52.9631 13 58 18.0368 58 24.25C58 30.4631 52.9631 35.5 46.75 35.5C52.9631 35.5 58 40.5369 58 46.75C58 49.8351 56.7581 52.6302 54.7471 54.6626L54.705 54.705L54.6676 54.7421C52.6348 56.7561 49.8377 58 46.75 58C43.6834 58 40.9033 56.773 38.8739 54.7831C38.8476 54.7572 38.8212 54.7311 38.795 54.705C38.7704 54.6803 38.7459 54.6556 38.7214 54.6307C36.729 52.601 35.5 49.819 35.5 46.75C35.5 52.9631 30.4631 58 24.25 58C18.0368 58 13 52.9631 13 46.75V35.5H24.25C18.0368 35.5 13 30.4631 13 24.25C13 18.0368 18.0368 13 24.25 13ZM33.25 24.25C33.25 29.2206 29.2206 33.25 24.25 33.25V15.25C29.2206 15.25 33.25 19.2794 33.25 24.25ZM55.75 46.75C55.75 41.7794 51.7206 37.75 46.75 37.75C41.7794 37.75 37.75 41.7794 37.75 46.75H55.75ZM15.25 37.75V46.75C15.25 51.7206 19.2794 55.75 24.25 55.75C29.2206 55.75 33.25 51.7206 33.25 46.75V37.75H15.25ZM37.75 33.25V15.25H46.75C51.7206 15.25 55.75 19.2794 55.75 24.25C55.75 29.2206 51.7206 33.25 46.75 33.25H37.75Z" fill="#1B1B1B"/>
</svg>
