<svg width="72" height="72" viewBox="0 0 72 72" fill="none" xmlns="http://www.w3.org/2000/svg">
<path fill-rule="evenodd" clip-rule="evenodd" d="M29.4289 13.5806C26.8905 13.5806 24.4561 14.5889 22.6612 16.3839L14 25.045V29.0095C14 31.8104 15.2031 34.3303 17.1208 36.0806C15.2031 37.8308 14 40.3507 14 43.1516V47.1161L22.6612 55.7773C24.4561 57.5722 26.8905 58.5806 29.4289 58.5806C32.2298 58.5806 34.7497 57.3775 36.5 55.4598C38.2503 57.3775 40.7702 58.5806 43.5711 58.5806C46.1095 58.5806 48.5439 57.5722 50.3389 55.7773L59 47.1161V43.1516C59 40.3507 57.7969 37.8308 55.8793 36.0806C57.7969 34.3303 59 31.8104 59 29.0095V25.045L50.3389 16.3839C48.5439 14.5889 46.1095 13.5806 43.5711 13.5806C40.7702 13.5806 38.2503 14.7837 36.5 16.7013C34.7497 14.7837 32.2298 13.5806 29.4289 13.5806ZM42.9787 36.0806C42.8708 35.9821 42.7649 35.881 42.6612 35.7773L36.5 29.6161L30.3388 35.7773C30.2351 35.881 30.1292 35.9821 30.0214 36.0806C30.1292 36.179 30.2351 36.2801 30.3388 36.3839L36.5 42.545L42.6612 36.3839C42.7649 36.2801 42.8708 36.179 42.9787 36.0806ZM39 47.1161V49.0095C39 51.534 41.0466 53.5806 43.5711 53.5806C44.7834 53.5806 45.9461 53.099 46.8033 52.2417L54 45.045V43.1516C54 40.6271 51.9534 38.5805 49.4289 38.5805C48.2166 38.5805 47.054 39.0621 46.1967 39.9194L39 47.1161ZM34 47.1161L26.8033 39.9194C25.946 39.0621 24.7834 38.5805 23.5711 38.5805C21.0465 38.5805 19 40.6271 19 43.1516V45.045L26.1967 52.2417C27.0539 53.099 28.2166 53.5806 29.4289 53.5806C31.9534 53.5806 34 51.534 34 49.0095V47.1161ZM34 23.1516V25.045L26.8033 32.2417C25.946 33.099 24.7834 33.5806 23.5711 33.5806C21.0465 33.5806 19 31.534 19 29.0095V27.1161L26.1967 19.9194C27.0539 19.0622 28.2166 18.5806 29.4289 18.5806C31.9534 18.5806 34 20.6271 34 23.1516ZM46.1967 32.2417L39 25.045V23.1516C39 20.6271 41.0466 18.5806 43.5711 18.5806C44.7834 18.5806 45.9461 19.0622 46.8033 19.9194L54 27.1161V29.0095C54 31.534 51.9534 33.5806 49.4289 33.5806C48.2166 33.5806 47.054 33.099 46.1967 32.2417Z" fill="#1B1B1B"/>
</svg>
