<svg width="72" height="72" viewBox="0 0 72 72" fill="none" xmlns="http://www.w3.org/2000/svg">
<path fill-rule="evenodd" clip-rule="evenodd" d="M42.7502 27.146C40.9001 25.9098 38.725 25.25 36.5 25.25V14C40.95 14 45.3002 15.3196 49.0003 17.7919C52.7004 20.2643 55.5843 23.7783 57.2873 27.8896C58.9902 32.0009 59.4358 36.525 58.5677 40.8895C57.6995 45.2541 55.5566 49.2632 52.4099 52.4099C49.2632 55.5566 45.2541 57.6995 40.8895 58.5677C36.525 59.4358 32.0009 58.9902 27.8896 57.2873C23.7783 55.5843 20.2643 52.7004 17.7919 49.0003C15.3196 45.3002 14 40.95 14 36.5H25.25C25.25 38.725 25.9098 40.9001 27.146 42.7502C28.3821 44.6002 30.1391 46.0421 32.1949 46.8937C34.2505 47.7452 36.5125 47.9679 38.6948 47.5338C40.877 47.0998 42.8816 46.0283 44.455 44.455C46.0283 42.8816 47.0998 40.877 47.5338 38.6948C47.9679 36.5125 47.7452 34.2505 46.8937 32.1949C46.0421 30.1391 44.6002 28.3821 42.7502 27.146Z" fill="#1B1B1B"/>
<path fill-rule="evenodd" clip-rule="evenodd" d="M25.25 14C25.25 15.4774 24.959 16.9403 24.3936 18.3052C23.8283 19.6701 22.9996 20.9103 21.9549 21.955C20.9103 22.9996 19.6701 23.8283 18.3052 24.3937C16.9403 24.959 15.4774 25.25 14 25.25L14 36.5C16.9547 36.5 19.8805 35.918 22.6104 34.7873C25.3402 33.6566 27.8206 31.9992 29.9099 29.9099C31.9992 27.8206 33.6566 25.3402 34.7873 22.6104C35.918 19.8805 36.5 16.9547 36.5 14L25.25 14Z" fill="#1B1B1B"/>
</svg>
