<svg width="24" height="24" viewBox="0 0 24 24" fill="none" xmlns="http://www.w3.org/2000/svg">
<path d="M5 12.5C5 12.2239 5.22386 12 5.5 12H18.5C18.7761 12 19 12.2239 19 12.5C19 12.7761 18.7761 13 18.5 13H5.5C5.22386 13 5 12.7761 5 12.5Z" fill="#1B1B1B"/>
<path d="M5 17.5C5 17.2239 5.22386 17 5.5 17H18.5C18.7761 17 19 17.2239 19 17.5C19 17.7761 18.7761 18 18.5 18H5.5C5.22386 18 5 17.7761 5 17.5Z" fill="#1B1B1B"/>
<path d="M5 7.5C5 7.22386 5.22386 7 5.5 7H18.5C18.7761 7 19 7.22386 19 7.5C19 7.77614 18.7761 8 18.5 8H5.5C5.22386 8 5 7.77614 5 7.5Z" fill="#1B1B1B"/>
</svg>
