<svg width="24" height="24" viewBox="0 0 24 24" fill="none" xmlns="http://www.w3.org/2000/svg">
<path d="M20.8434 11.6147C20.8378 11.6025 20.8322 11.5903 20.8256 11.5791L18 6.55313V3C18 2.60218 17.842 2.22064 17.5607 1.93934C17.2794 1.65804 16.8978 1.5 16.5 1.5H7.5C7.10217 1.5 6.72064 1.65804 6.43934 1.93934C6.15803 2.22064 6 2.60218 6 3V6.555L3.17437 11.5791C3.16781 11.5903 3.16218 11.6025 3.15562 11.6147C3.0332 11.8611 2.9812 12.1366 3.00536 12.4107C3.02951 12.6848 3.12887 12.9469 3.2925 13.1681L3.30281 13.1813L11.4066 23.7075C11.4766 23.7984 11.5666 23.8719 11.6696 23.9225C11.7725 23.9732 11.8857 23.9995 12.0005 23.9995C12.1152 23.9995 12.2284 23.9732 12.3314 23.9225C12.4343 23.8719 12.5243 23.7984 12.5944 23.7075L20.6972 13.1813L20.7075 13.1681C20.8712 12.9469 20.9705 12.6847 20.9945 12.4106C21.0185 12.1364 20.9662 11.861 20.8434 11.6147ZM16.5 3V6H7.5V3H16.5ZM12 13.5C11.7775 13.5 11.56 13.434 11.375 13.3104C11.19 13.1868 11.0458 13.0111 10.9606 12.8055C10.8755 12.6 10.8532 12.3738 10.8966 12.1555C10.94 11.9373 11.0472 11.7368 11.2045 11.5795C11.3618 11.4222 11.5623 11.315 11.7805 11.2716C11.9987 11.2282 12.2249 11.2505 12.4305 11.3356C12.6361 11.4208 12.8118 11.565 12.9354 11.75C13.059 11.935 13.125 12.1525 13.125 12.375C13.125 12.6734 13.0065 12.9595 12.7955 13.1705C12.5845 13.3815 12.2984 13.5 12 13.5ZM12.75 21.0469V14.8903C13.3542 14.7102 13.8735 14.3185 14.2127 13.787C14.5519 13.2555 14.6885 12.6197 14.5975 11.9958C14.5065 11.3718 14.1939 10.8015 13.7169 10.3891C13.24 9.9767 12.6305 9.74974 12 9.74974C11.3695 9.74974 10.76 9.9767 10.283 10.3891C9.80609 10.8015 9.49353 11.3718 9.4025 11.9958C9.31147 12.6197 9.44806 13.2555 9.7873 13.787C10.1265 14.3185 10.6457 14.7102 11.25 14.8903V21.0459L4.5 12.2813L7.18968 7.5H16.8112L19.5 12.2813L12.75 21.0469Z" fill="#FBFBFB"/>
</svg>
