<svg width="24" height="24" viewBox="0 0 24 24" fill="none" xmlns="http://www.w3.org/2000/svg">
<path d="M20.9859 4.41714C20.9637 4.05145 20.8084 3.70653 20.5494 3.44747C20.2903 3.18841 19.9454 3.03312 19.5797 3.01089C18.4003 2.94058 15.3862 3.04839 12.885 5.54871L12.4397 5.99964H6.97125C6.77351 5.99853 6.57752 6.03674 6.39469 6.11207C6.21185 6.18739 6.04582 6.29832 5.90625 6.43839L2.69062 9.65589C2.49342 9.85296 2.35504 10.1011 2.29101 10.3724C2.22699 10.6438 2.23985 10.9276 2.32816 11.192C2.41647 11.4565 2.57673 11.6911 2.79095 11.8695C3.00518 12.0479 3.26489 12.1631 3.54094 12.2021L7.1475 12.7056L11.2922 16.8503L11.7956 20.4587C11.8343 20.7348 11.9495 20.9945 12.1281 21.2085C12.3067 21.4226 12.5416 21.5824 12.8062 21.67C12.9604 21.7215 13.1218 21.7477 13.2844 21.7478C13.4812 21.7481 13.6761 21.7096 13.8579 21.6343C14.0397 21.559 14.2048 21.4484 14.3437 21.309L17.5612 18.0934C17.7013 17.9538 17.8123 17.7878 17.8876 17.605C17.9629 17.4221 18.0011 17.2261 18 17.0284V11.56L18.4472 11.1128C20.9484 8.61152 21.0562 5.59746 20.9859 4.41714ZM6.97125 7.49964H10.9397L7.23375 11.2046L3.75 10.719L6.97125 7.49964ZM13.9472 6.61371C14.6679 5.88858 15.535 5.32559 16.4906 4.96232C17.4462 4.59905 18.4684 4.44387 19.4887 4.50714C19.5545 5.52806 19.4009 6.55122 19.0384 7.50786C18.6758 8.4645 18.1127 9.33245 17.3869 10.0534L12 15.4384L8.56125 11.9996L13.9472 6.61371ZM16.5 17.0284L13.2816 20.2496L12.795 16.765L16.5 13.06V17.0284ZM9.5475 17.919C9.12562 18.8434 7.71469 20.9996 3.75 20.9996C3.55109 20.9996 3.36032 20.9206 3.21967 20.78C3.07902 20.6393 3 20.4486 3 20.2496C3 16.285 5.15625 14.874 6.08062 14.4512C6.17025 14.4103 6.26705 14.3875 6.3655 14.384C6.46394 14.3806 6.56211 14.3965 6.65439 14.431C6.74667 14.4655 6.83125 14.5178 6.90331 14.585C6.97537 14.6521 7.0335 14.7328 7.07437 14.8225C7.11525 14.9121 7.13807 15.0089 7.14153 15.1073C7.145 15.2058 7.12903 15.3039 7.09456 15.3962C7.06009 15.4885 7.00778 15.5731 6.94061 15.6451C6.87345 15.7172 6.79275 15.7753 6.70312 15.8162C6.10031 16.0909 4.77 16.975 4.53562 19.464C7.02469 19.2296 7.91062 17.8993 8.18344 17.2965C8.22431 17.2069 8.28244 17.1262 8.3545 17.059C8.42656 16.9919 8.51114 16.9396 8.60342 16.9051C8.6957 16.8706 8.79387 16.8546 8.89231 16.8581C8.99076 16.8616 9.08756 16.8844 9.17719 16.9253C9.26681 16.9661 9.34751 17.0243 9.41468 17.0963C9.48184 17.1684 9.53415 17.253 9.56862 17.3453C9.6031 17.4375 9.61906 17.5357 9.61559 17.6341C9.61213 17.7326 9.58931 17.8294 9.54844 17.919H9.5475Z" fill="#1B1B1B"/>
</svg>
